<?xml version="1.0" encoding="UTF-8" standalone="no"?><!DOCTYPE svg PUBLIC "-//W3C//DTD SVG 1.1//EN" "http://www.w3.org/Graphics/SVG/1.1/DTD/svg11.dtd"><svg width="100%" height="100%" viewBox="0 0 600 800" version="1.1" xmlns="http://www.w3.org/2000/svg" xmlns:xlink="http://www.w3.org/1999/xlink" xml:space="preserve" xmlns:serif="http://www.serif.com/" style="fill-rule:evenodd;clip-rule:evenodd;stroke-linecap:round;stroke-linejoin:round;stroke-miterlimit:1.5;"><rect x="115" y="480" width="50" height="20" style="fill:#b68272;stroke:#e3dcd3;stroke-width:1px;"/><rect x="90" y="460" width="50" height="20" style="fill:#956a5d;stroke:#e3dcd3;stroke-width:1px;"/><rect x="410" y="500" width="55" height="20" style="fill:#956a5d;stroke:#e3dcd3;stroke-width:1px;"/><rect x="410" y="520" width="30" height="20" style="fill:#956a5d;stroke:#e3dcd3;stroke-width:1px;"/><rect x="153.75" y="500" width="36.25" height="20" style="fill:#956a5d;stroke:#e3dcd3;stroke-width:1px;"/><rect x="153.75" y="320" width="36.25" height="20" style="fill:#956a5d;stroke:#e3dcd3;stroke-width:1px;"/><rect x="65" y="480" width="50" height="20" style="fill:#dfa391;stroke:#e3dcd3;stroke-width:1px;"/><rect x="103.75" y="500" width="50" height="20" style="fill:#d09583;stroke:#e3dcd3;stroke-width:1px;"/><rect x="465" y="540" width="25" height="20" style="fill:#d09583;stroke:#e3dcd3;stroke-width:1px;"/><rect x="140" y="340" width="50" height="20" style="fill:#d09583;stroke:#e3dcd3;stroke-width:1px;"/><rect x="432.5" y="280" width="40" height="20" style="fill:#b68272;stroke:#e3dcd3;stroke-width:1px;"/><rect x="115" y="400" width="50" height="20" style="fill:#b68272;stroke:#e3dcd3;stroke-width:1px;"/><rect x="90" y="520" width="50" height="20" style="fill:#b68272;stroke:#e3dcd3;stroke-width:1px;"/><rect x="440" y="520" width="50" height="20" style="fill:#b68272;stroke:#e3dcd3;stroke-width:1px;"/><rect x="95" y="380" width="40" height="20" style="fill:#b68272;stroke:#e3dcd3;stroke-width:1px;"/><rect x="172.5" y="380" width="17.5" height="20" style="fill:#b68272;stroke:#e3dcd3;stroke-width:1px;"/><rect x="60" y="540" width="40" height="20" style="fill:#b68272;stroke:#e3dcd3;stroke-width:1px;"/><rect x="410" y="540" width="40" height="20" style="fill:#b68272;stroke:#e3dcd3;stroke-width:1px;"/><rect x="410" y="480" width="40" height="20" style="fill:#b68272;stroke:#e3dcd3;stroke-width:1px;"/><rect x="422.5" y="320" width="37.5" height="20" style="fill:#956a5d;stroke:#e3dcd3;stroke-width:1px;"/><rect x="135" y="380" width="37.5" height="20" style="fill:#956a5d;stroke:#e3dcd3;stroke-width:1px;"/><rect x="435" y="340" width="50" height="20" style="fill:#d09583;stroke:#e3dcd3;stroke-width:1px;"/><rect x="460" y="360" width="50" height="20" style="fill:#956a5d;stroke:#e3dcd3;stroke-width:1px;"/><rect x="65" y="400" width="50" height="20" style="fill:#956a5d;stroke:#e3dcd3;stroke-width:1px;"/><rect x="160" y="360" width="30" height="20" style="fill:#956a5d;stroke:#e3dcd3;stroke-width:1px;"/><rect x="100" y="540" width="50" height="20" style="fill:#956a5d;stroke:#e3dcd3;stroke-width:1px;"/><rect x="450" y="540" width="15" height="20" style="fill:#956a5d;stroke:#e3dcd3;stroke-width:1px;"/><rect x="140" y="420" width="50" height="20" style="fill:#956a5d;stroke:#e3dcd3;stroke-width:1px;"/><rect x="435" y="380" width="50" height="20" style="fill:#d09583;stroke:#e3dcd3;stroke-width:1px;"/><rect x="110" y="360" width="50" height="20" style="fill:#d09583;stroke:#e3dcd3;stroke-width:1px;"/><rect x="90" y="560" width="50" height="20" style="fill:#d09583;stroke:#e3dcd3;stroke-width:1px;"/><rect x="410" y="560" width="47.5" height="20" style="fill:#d09583;stroke:#e3dcd3;stroke-width:1px;"/><rect x="415" y="400" width="45" height="20" style="fill:#d09583;stroke:#e3dcd3;stroke-width:1px;"/><rect x="435" y="420" width="50" height="20" style="fill:#d09583;stroke:#e3dcd3;stroke-width:1px;"/><rect x="165" y="440" width="25" height="20" style="fill:#d09583;stroke:#e3dcd3;stroke-width:1px;"/><rect x="430" y="360" width="30" height="20" style="fill:#d09583;stroke:#e3dcd3;stroke-width:1px;"/><rect x="485" y="300" width="50" height="20" style="fill:#d09583;stroke:#e3dcd3;stroke-width:1px;"/><rect x="472.5" y="280" width="37.5" height="20" style="fill:#d09583;stroke:#e3dcd3;stroke-width:1px;"/><rect x="510" y="280" width="50" height="20" style="fill:#d09583;stroke:#e3dcd3;stroke-width:1px;"/><rect x="435" y="260" width="50" height="20" style="fill:#dfa391;stroke:#e3dcd3;stroke-width:1px;"/><rect x="90" y="420" width="50" height="20" style="fill:#dfa391;stroke:#e3dcd3;stroke-width:1px;"/><rect x="165" y="400" width="25" height="20" style="fill:#dfa391;stroke:#e3dcd3;stroke-width:1px;"/><rect x="115" y="440" width="50" height="20" style="fill:#dfa391;stroke:#e3dcd3;stroke-width:1px;"/><rect x="485" y="260" width="50" height="20" style="fill:#956a5d;stroke:#e3dcd3;stroke-width:1px;"/><rect x="460" y="240" width="50" height="20" style="fill:#d09583;stroke:#e3dcd3;stroke-width:1px;"/><rect x="140" y="460" width="50" height="20" style="fill:#d09583;stroke:#e3dcd3;stroke-width:1px;"/><rect x="430" y="240" width="30" height="20" style="fill:#d09583;stroke:#e3dcd3;stroke-width:1px;"/><rect x="485" y="220" width="50" height="20" style="fill:#d09583;stroke:#e3dcd3;stroke-width:1px;"/><rect x="435" y="300" width="50" height="20" style="fill:#d09583;stroke:#e3dcd3;stroke-width:1px;"/><rect x="65" y="440" width="50" height="20" style="fill:#d09583;stroke:#e3dcd3;stroke-width:1px;"/><rect x="165" y="480" width="25" height="20" style="fill:#d09583;stroke:#e3dcd3;stroke-width:1px;"/><rect x="160" y="300" width="30" height="20" style="fill:#d09583;stroke:#e3dcd3;stroke-width:1px;"/><rect x="190" y="200" width="10" height="400" style="fill:#e3dcd3;stroke:#e3dcd3;stroke-width:1px;"/><rect x="190" y="190" width="220" height="10" style="fill:#e3dcd3;stroke:#e3dcd3;stroke-width:1px;"/><rect x="400" y="200" width="10" height="400" style="fill:#e3dcd3;stroke:#e3dcd3;stroke-width:1px;"/><rect x="410" y="400" width="5" height="20" style="fill:#d09583;stroke:#e3dcd3;stroke-width:1px;"/><rect x="410" y="380" width="25" height="20" style="fill:#dfa391;stroke:#e3dcd3;stroke-width:1px;"/><rect x="410" y="360" width="20" height="20" style="fill:#d09583;stroke:#e3dcd3;stroke-width:1px;"/><rect x="410" y="340" width="25" height="20" style="fill:#d09583;stroke:#e3dcd3;stroke-width:1px;"/><rect x="410" y="300" width="25" height="20" style="fill:#d09583;stroke:#e3dcd3;stroke-width:1px;"/><rect x="410" y="320" width="12.5" height="20" style="fill:#d09583;stroke:#e3dcd3;stroke-width:1px;"/><rect x="410" y="280" width="22.5" height="20" style="fill:#d09583;stroke:#e3dcd3;stroke-width:1px;"/><rect x="410" y="260" width="25" height="20" style="fill:#d09583;stroke:#e3dcd3;stroke-width:1px;"/><rect x="263" y="146" width="74" height="34" style="fill:#cfc9c0;"/><rect x="265" y="148" width="70" height="30" style="fill:#78be8f;stroke:#cfc9c0;stroke-width:1px;"/><path d="M271.914,173L271.914,153.116L284.338,153.116L284.338,156.48L275.297,156.48L275.297,160.888L283.71,160.888L283.71,164.238L275.297,164.238L275.297,169.65L284.659,169.65L284.659,173L271.914,173Z" style="fill:#fff;fill-rule:nonzero;"/><path d="M287.776,173L293.502,162.624L288.313,153.116L292.268,153.116L295.628,159.504L298.92,153.116L302.84,153.116L297.628,162.773L303.355,173L299.274,173L295.559,166.123L291.833,173L287.776,173Z" style="fill:#fff;fill-rule:nonzero;"/><rect x="306.94" y="153.116" width="3.383" height="19.884" style="fill:#fff;fill-rule:nonzero;"/><path d="M319.27,173L319.27,156.48L314.298,156.48L314.298,153.116L327.614,153.116L327.614,156.48L322.654,156.48L322.654,173L319.27,173Z" style="fill:#fff;fill-rule:nonzero;"/><path d="M200,200L200,600" style="fill:none;stroke:#fff;stroke-width:1px;"/><path d="M400,600L400,200" style="fill:none;stroke:#fff;stroke-width:1px;"/><path d="M400,200L200,200" style="fill:none;stroke:#fff;stroke-width:1px;"/><circle cx="370" cy="400" r="10" style="fill:#fff;stroke:#fff;stroke-width:1px;"/></svg>