<?xml version="1.0" encoding="UTF-8" standalone="no"?><!DOCTYPE svg PUBLIC "-//W3C//DTD SVG 1.1//EN" "http://www.w3.org/Graphics/SVG/1.1/DTD/svg11.dtd"><svg width="100%" height="100%" viewBox="0 0 496 493" version="1.1" xmlns="http://www.w3.org/2000/svg" xmlns:xlink="http://www.w3.org/1999/xlink" xml:space="preserve" xmlns:serif="http://www.serif.com/" style="fill-rule:evenodd;clip-rule:evenodd;stroke-linecap:round;stroke-linejoin:round;stroke-miterlimit:1.5;"><rect x="50.5" y="346" width="50" height="20" style="fill:#b68272;stroke:#e3dcd3;stroke-width:1px;"/><rect x="25.5" y="326" width="50" height="20" style="fill:#956a5d;stroke:#e3dcd3;stroke-width:1px;"/><rect x="345.5" y="366" width="55" height="20" style="fill:#956a5d;stroke:#e3dcd3;stroke-width:1px;"/><rect x="345.5" y="386" width="30" height="20" style="fill:#956a5d;stroke:#e3dcd3;stroke-width:1px;"/><rect x="89.25" y="366" width="36.25" height="20" style="fill:#956a5d;stroke:#e3dcd3;stroke-width:1px;"/><rect x="89.25" y="186" width="36.25" height="20" style="fill:#956a5d;stroke:#e3dcd3;stroke-width:1px;"/><rect x="0.5" y="346" width="50" height="20" style="fill:#dfa391;stroke:#e3dcd3;stroke-width:1px;"/><rect x="39.25" y="366" width="50" height="20" style="fill:#d09583;stroke:#e3dcd3;stroke-width:1px;"/><rect x="400.5" y="406" width="25" height="20" style="fill:#d09583;stroke:#e3dcd3;stroke-width:1px;"/><rect x="75.5" y="206" width="50" height="20" style="fill:#d09583;stroke:#e3dcd3;stroke-width:1px;"/><rect x="368" y="146" width="40" height="20" style="fill:#b68272;stroke:#e3dcd3;stroke-width:1px;"/><rect x="50.5" y="266" width="50" height="20" style="fill:#b68272;stroke:#e3dcd3;stroke-width:1px;"/><rect x="25.5" y="386" width="50" height="20" style="fill:#b68272;stroke:#e3dcd3;stroke-width:1px;"/><rect x="375.5" y="386" width="50" height="20" style="fill:#b68272;stroke:#e3dcd3;stroke-width:1px;"/><rect x="30.5" y="246" width="40" height="20" style="fill:#b68272;stroke:#e3dcd3;stroke-width:1px;"/><rect x="108" y="246" width="17.5" height="20" style="fill:#b68272;stroke:#e3dcd3;stroke-width:1px;"/><rect x="0.5" y="406" width="35" height="20" style="fill:#b68272;stroke:#e3dcd3;stroke-width:1px;"/><rect x="345.5" y="406" width="40" height="20" style="fill:#b68272;stroke:#e3dcd3;stroke-width:1px;"/><rect x="345.5" y="346" width="40" height="20" style="fill:#b68272;stroke:#e3dcd3;stroke-width:1px;"/><rect x="358" y="186" width="37.5" height="20" style="fill:#956a5d;stroke:#e3dcd3;stroke-width:1px;"/><rect x="70.5" y="246" width="37.5" height="20" style="fill:#956a5d;stroke:#e3dcd3;stroke-width:1px;"/><rect x="370.5" y="206" width="50" height="20" style="fill:#d09583;stroke:#e3dcd3;stroke-width:1px;"/><rect x="395.5" y="226" width="50" height="20" style="fill:#956a5d;stroke:#e3dcd3;stroke-width:1px;"/><rect x="0.5" y="266" width="50" height="20" style="fill:#956a5d;stroke:#e3dcd3;stroke-width:1px;"/><rect x="95.5" y="226" width="30" height="20" style="fill:#956a5d;stroke:#e3dcd3;stroke-width:1px;"/><rect x="35.5" y="406" width="50" height="20" style="fill:#956a5d;stroke:#e3dcd3;stroke-width:1px;"/><rect x="385.5" y="406" width="15" height="20" style="fill:#956a5d;stroke:#e3dcd3;stroke-width:1px;"/><rect x="75.5" y="286" width="50" height="20" style="fill:#956a5d;stroke:#e3dcd3;stroke-width:1px;"/><rect x="370.5" y="246" width="50" height="20" style="fill:#d09583;stroke:#e3dcd3;stroke-width:1px;"/><rect x="45.5" y="226" width="50" height="20" style="fill:#d09583;stroke:#e3dcd3;stroke-width:1px;"/><rect x="25.5" y="426" width="50" height="20" style="fill:#d09583;stroke:#e3dcd3;stroke-width:1px;"/><rect x="345.5" y="426" width="47.5" height="20" style="fill:#d09583;stroke:#e3dcd3;stroke-width:1px;"/><rect x="350.5" y="266" width="45" height="20" style="fill:#d09583;stroke:#e3dcd3;stroke-width:1px;"/><rect x="370.5" y="286" width="50" height="20" style="fill:#d09583;stroke:#e3dcd3;stroke-width:1px;"/><rect x="100.5" y="306" width="25" height="20" style="fill:#d09583;stroke:#e3dcd3;stroke-width:1px;"/><rect x="365.5" y="226" width="30" height="20" style="fill:#d09583;stroke:#e3dcd3;stroke-width:1px;"/><rect x="420.5" y="166" width="50" height="20" style="fill:#d09583;stroke:#e3dcd3;stroke-width:1px;"/><rect x="408" y="146" width="37.5" height="20" style="fill:#d09583;stroke:#e3dcd3;stroke-width:1px;"/><rect x="445.5" y="146" width="50" height="20" style="fill:#d09583;stroke:#e3dcd3;stroke-width:1px;"/><rect x="370.5" y="126" width="50" height="20" style="fill:#dfa391;stroke:#e3dcd3;stroke-width:1px;"/><rect x="25.5" y="286" width="50" height="20" style="fill:#dfa391;stroke:#e3dcd3;stroke-width:1px;"/><rect x="100.5" y="266" width="25" height="20" style="fill:#dfa391;stroke:#e3dcd3;stroke-width:1px;"/><rect x="50.5" y="306" width="50" height="20" style="fill:#dfa391;stroke:#e3dcd3;stroke-width:1px;"/><rect x="420.5" y="126" width="50" height="20" style="fill:#956a5d;stroke:#e3dcd3;stroke-width:1px;"/><rect x="395.5" y="106" width="50" height="20" style="fill:#d09583;stroke:#e3dcd3;stroke-width:1px;"/><rect x="75.5" y="326" width="50" height="20" style="fill:#d09583;stroke:#e3dcd3;stroke-width:1px;"/><rect x="365.5" y="106" width="30" height="20" style="fill:#d09583;stroke:#e3dcd3;stroke-width:1px;"/><rect x="420.5" y="86" width="50" height="20" style="fill:#d09583;stroke:#e3dcd3;stroke-width:1px;"/><rect x="370.5" y="166" width="50" height="20" style="fill:#d09583;stroke:#e3dcd3;stroke-width:1px;"/><rect x="0.5" y="306" width="50" height="20" style="fill:#d09583;stroke:#e3dcd3;stroke-width:1px;"/><rect x="100.5" y="346" width="25" height="20" style="fill:#d09583;stroke:#e3dcd3;stroke-width:1px;"/><rect x="95.5" y="166" width="30" height="20" style="fill:#d09583;stroke:#e3dcd3;stroke-width:1px;"/><rect x="125.5" y="66" width="10" height="400" style="fill:#e3dcd3;stroke:#e3dcd3;stroke-width:1px;"/><rect x="125.5" y="56" width="220" height="10" style="fill:#e3dcd3;stroke:#e3dcd3;stroke-width:1px;"/><rect x="335.5" y="66" width="10" height="400" style="fill:#e3dcd3;stroke:#e3dcd3;stroke-width:1px;"/><rect x="345.5" y="266" width="5" height="20" style="fill:#d09583;stroke:#e3dcd3;stroke-width:1px;"/><rect x="345.5" y="246" width="25" height="20" style="fill:#dfa391;stroke:#e3dcd3;stroke-width:1px;"/><rect x="345.5" y="226" width="20" height="20" style="fill:#d09583;stroke:#e3dcd3;stroke-width:1px;"/><rect x="345.5" y="206" width="25" height="20" style="fill:#d09583;stroke:#e3dcd3;stroke-width:1px;"/><rect x="345.5" y="166" width="25" height="20" style="fill:#d09583;stroke:#e3dcd3;stroke-width:1px;"/><rect x="345.5" y="186" width="12.5" height="20" style="fill:#d09583;stroke:#e3dcd3;stroke-width:1px;"/><rect x="345.5" y="146" width="22.5" height="20" style="fill:#d09583;stroke:#e3dcd3;stroke-width:1px;"/><rect x="345.5" y="126" width="25" height="20" style="fill:#d09583;stroke:#e3dcd3;stroke-width:1px;"/><rect x="198.5" y="12" width="74" height="34" style="fill:#cfc9c0;"/><rect x="200.5" y="14" width="70" height="30" style="fill:#78be8f;stroke:#cfc9c0;stroke-width:1px;"/><path d="M207.414,39L207.414,19.116L219.838,19.116L219.838,22.48L210.797,22.48L210.797,26.888L219.21,26.888L219.21,30.238L210.797,30.238L210.797,35.65L220.159,35.65L220.159,39L207.414,39Z" style="fill:#fff;fill-rule:nonzero;"/><path d="M223.276,39L229.002,28.624L223.813,19.116L227.768,19.116L231.128,25.504L234.42,19.116L238.34,19.116L233.128,28.773L238.855,39L234.774,39L231.059,32.123L227.333,39L223.276,39Z" style="fill:#fff;fill-rule:nonzero;"/><rect x="242.44" y="19.116" width="3.383" height="19.884" style="fill:#fff;fill-rule:nonzero;"/><path d="M254.77,39L254.77,22.48L249.798,22.48L249.798,19.116L263.114,19.116L263.114,22.48L258.154,22.48L258.154,39L254.77,39Z" style="fill:#fff;fill-rule:nonzero;"/><path d="M135.5,66L135.5,466" style="fill:none;stroke:#fff;stroke-width:1px;"/><path d="M335.5,466L335.5,66" style="fill:none;stroke:#fff;stroke-width:1px;"/><path d="M335.5,66L135.5,66" style="fill:none;stroke:#fff;stroke-width:1px;"/><circle cx="305.5" cy="266" r="10" style="fill:#fff;stroke:#fff;stroke-width:1px;"/></svg>